# xmcd CD database file
#
# Track frame offsets:
#	150
#	15318
#	29696
#	45082
#	62042
#	76423
#	93465
#	107969
#	119263
#	135345
#	149796
#	166363
#	187520
#	200528
#	211029
#	230566
#
# Disc length: 3351 seconds
#
# Revision: 0
# Processed by: cddbd v1.4PL0 Copyright (c) Steve Scherf et al.
# Submitted via: CDex 1.50Beta7
#
DISCID=d10d1510
DTITLE=Doug Church - King Country - Volume 1
DYEAR=2001
DGENRE=Country
TTITLE0=Don't Happen Twice
TTITLE1=God Bless The USA
TTITLE2=Good Time Charlie's Got The Blues
TTITLE3=Seven Spanish Angels
TTITLE4=Honey Do
TTITLE5=Let Me Be In Love
TTITLE6=Luckenbach, Texas
TTITLE7=Chattahoochie
TTITLE8=The Dance
TTITLE9=I Like It, I Love It
TTITLE10=The Gambler
TTITLE11=Sweet Home Alabama
TTITLE12=Seven Bridges Road
TTITLE13=On The Road Again
TTITLE14=Ain't Goin' Down
TTITLE15=The Thunder Rolls
EXTD=YEAR: 2001
EXTT0=
EXTT1=
EXTT2=
EXTT3=
EXTT4=
EXTT5=
EXTT6=
EXTT7=
EXTT8=
EXTT9=
EXTT10=
EXTT11=
EXTT12=
EXTT13=
EXTT14=
EXTT15=
PLAYORDER=
